<svg xmlns="http://www.w3.org/2000/svg" viewBox="0 0 59.8 27.52"><defs><style>.cls-1{fill:#404041;}.cls-2{fill:#3581d5;}</style></defs><title>Asset 1</title><g id="Layer_2" data-name="Layer 2"><g id="Layer_1-2" data-name="Layer 1"><path id="Path_18" data-name="Path 18" class="cls-1" d="M11.5,13.8a12.25,12.25,0,0,1-.2,1.9,4.59,4.59,0,0,1-.7,1.6,5.73,5.73,0,0,1-1.1,1.1,3.17,3.17,0,0,1-1.6.4,2.93,2.93,0,0,1-1.6-.4,3.18,3.18,0,0,1-1.2-1.1,7.74,7.74,0,0,1-.7-1.6,11.08,11.08,0,0,1-.2-1.9,12.25,12.25,0,0,1,.2-1.9,4.59,4.59,0,0,1,.7-1.6A3.33,3.33,0,0,1,7.9,8.8a2.93,2.93,0,0,1,1.6.4,3.84,3.84,0,0,1,1.1,1.1,7.74,7.74,0,0,1,.7,1.6A11.08,11.08,0,0,1,11.5,13.8ZM0,0V21.6H4.1v-2h.1a3.75,3.75,0,0,0,2.1,1.8,6.55,6.55,0,0,0,3.1.5,5.93,5.93,0,0,0,2.3-.5,5.11,5.11,0,0,0,2.1-1.5,6.14,6.14,0,0,0,1.5-2.6,11.71,11.71,0,0,0,0-7.4,7.64,7.64,0,0,0-1.5-2.6,8,8,0,0,0-2.1-1.5,5.93,5.93,0,0,0-2.3-.5,6.71,6.71,0,0,0-2.8.6A4.63,4.63,0,0,0,4.5,7.7H4.4V0ZM18.6,0V21.6h4.3V0ZM52.1,17.9a3.29,3.29,0,0,1-1.7-.4,3.84,3.84,0,0,1-1.1-1.1,4.71,4.71,0,0,1-.6-1.5,9.85,9.85,0,0,1-.2-1.7,9.85,9.85,0,0,1,.2-1.7,3.51,3.51,0,0,1,.6-1.4,5.24,5.24,0,0,1,1.1-1A2.93,2.93,0,0,1,52,8.7a3.92,3.92,0,0,1,1.8.4,2.91,2.91,0,0,1,1.1,1.1,4.71,4.71,0,0,1,.6,1.5,11,11,0,0,1,.2,1.8,8.75,8.75,0,0,1-.2,1.6,3.69,3.69,0,0,1-.7,1.4,5.24,5.24,0,0,1-1.1,1,3.17,3.17,0,0,1-1.6.4Zm7.7,2.7V5.9H55.7V8h-.1a4.12,4.12,0,0,0-2-1.9,6.26,6.26,0,0,0-2.7-.6,7.17,7.17,0,0,0-2.9.6,6.84,6.84,0,0,0-2.1,1.7,7.45,7.45,0,0,0-1.3,2.5,9.25,9.25,0,0,0-.4,2.9,10.32,10.32,0,0,0,.4,3,5.82,5.82,0,0,0,1.2,2.5,6.84,6.84,0,0,0,2.1,1.7,7.65,7.65,0,0,0,3,.6,6.26,6.26,0,0,0,2.7-.6,4.94,4.94,0,0,0,2-1.8h.1v2.1a4,4,0,0,1-.8,2.8,3,3,0,0,1-2.6,1.1,3.51,3.51,0,0,1-2-.5,2.59,2.59,0,0,1-1.2-1.7H44.8a4.76,4.76,0,0,0,.7,2.3,6.09,6.09,0,0,0,1.6,1.6,8.49,8.49,0,0,0,2.2.9,9.69,9.69,0,0,0,2.3.3,10.52,10.52,0,0,0,4.3-.7,5.82,5.82,0,0,0,3.5-4.1,5.22,5.22,0,0,0,.4-2.1Z"/><path id="Path_5" data-name="Path 5" class="cls-2" d="M42.25,11.6A8.67,8.67,0,0,0,34,5.4a9.13,9.13,0,0,0-6.2,2.5,8.77,8.77,0,0,0-2.6,6.2,8.67,8.67,0,0,0,6.5,8.4h.1a7.61,7.61,0,0,0,2.1.3,7.46,7.46,0,0,0,2.6-.4h0a7.22,7.22,0,0,0,2-.9h0c.2-.1.4-.3.6-.4a2.18,2.18,0,0,0,.5-.4c.2-.1.3-.3.5-.5l.5-.5c.1-.2.3-.3.4-.5s.3-.5.5-.7a7.71,7.71,0,0,0,1-2.5,1.48,1.48,0,0,0,.1-.7c0-.2.1-.5.1-.7A11.28,11.28,0,0,0,42.25,11.6Zm-13.2,4.7a2.2,2.2,0,1,1,2.2-2.2A2.22,2.22,0,0,1,29.05,16.3Zm4.8,4.9a2.2,2.2,0,1,1,2.2-2.2A2.22,2.22,0,0,1,33.85,21.2Zm0-9.6a2.2,2.2,0,1,1,2.2-2.2A2.22,2.22,0,0,1,33.85,11.6Zm4.8,4.7a2.2,2.2,0,1,1,2.2-2.2A2.1,2.1,0,0,1,38.65,16.3Z"/></g></g></svg>